<svg width="351" height="261" viewBox="0 0 351 261" fill="none" xmlns="http://www.w3.org/2000/svg">
<rect width="351" height="261" fill="white"/>
<path d="M176.332 192L175.573 193.85L176.619 194.279L177.525 193.605L176.332 192ZM215.332 106.5L213.332 106.5L213.332 106.5L215.332 106.5ZM176.332 34L177.091 32.1497L176.046 31.7207L175.139 32.3951L176.332 34ZM177.091 190.15C174.208 188.967 170.371 186.147 166.182 181.873C162.028 177.636 157.649 172.094 153.658 165.636C145.663 152.699 139.332 136.27 139.332 119.5H135.332C135.332 137.23 142.001 154.384 150.256 167.739C154.39 174.427 158.948 180.208 163.326 184.673C167.668 189.103 171.956 192.366 175.573 193.85L177.091 190.15ZM213.332 106.5C213.332 155.197 187.785 180.991 175.139 190.395L177.525 193.605C190.879 183.676 217.332 156.803 217.332 106.5L213.332 106.5ZM175.573 35.8503C178.456 37.0331 182.293 39.8535 186.482 44.1266C190.636 48.3639 195.015 53.9065 199.006 60.364C207.001 73.3005 213.332 89.7295 213.332 106.5H217.332C217.332 88.7705 210.663 71.6161 202.408 58.261C198.274 51.5727 193.716 45.7923 189.338 41.3265C184.996 36.8965 180.708 33.6336 177.091 32.1497L175.573 35.8503ZM139.332 119.5C139.332 70.8028 164.879 45.009 177.525 35.6049L175.139 32.3951C161.785 42.3244 135.332 69.1972 135.332 119.5H139.332Z" fill="black"/>
<path d="M176.332 192L177.555 193.583L178.449 192.892L178.319 191.769L176.332 192ZM121.787 115.475L122.787 113.743L122.787 113.743L121.787 115.475ZM39.5 113L38.2771 111.417L37.3828 112.108L37.5134 113.231L39.5 113ZM175.109 190.417C172.643 192.323 168.282 194.236 162.487 195.727C156.741 197.205 149.751 198.226 142.163 198.454C126.962 198.91 109.569 196.178 95.0452 187.793L93.0452 191.257C108.399 200.122 126.59 202.923 142.283 202.452C150.142 202.216 157.428 201.159 163.484 199.601C169.492 198.055 174.461 195.973 177.555 193.583L175.109 190.417ZM120.787 117.207C162.96 141.556 172.525 176.577 174.345 192.231L178.319 191.769C176.396 175.24 166.35 138.894 122.787 113.743L120.787 117.207ZM40.7229 114.583C43.1887 112.677 47.5498 110.764 53.3448 109.273C59.0913 107.795 66.0808 106.774 73.6687 106.546C88.8699 106.09 106.263 108.822 120.787 117.207L122.787 113.743C107.433 104.878 89.2419 102.077 73.5488 102.548C65.6896 102.784 58.4044 103.841 52.3481 105.399C46.3404 106.945 41.3707 109.027 38.2771 111.417L40.7229 114.583ZM95.0452 187.793C52.8721 163.444 43.3073 128.423 41.4866 112.769L37.5134 113.231C39.4358 129.76 49.4817 166.106 93.0452 191.257L95.0452 187.793Z" fill="black"/>
<path d="M176.664 191.775L174.682 192.043L174.833 193.163L175.871 193.611L176.664 191.775ZM313.496 112.775L315.478 112.507L315.327 111.387L314.289 110.939L313.496 112.775ZM270.209 182.8L269.209 181.068L269.209 181.068L270.209 182.8ZM178.646 191.507C178.229 188.419 178.753 183.686 180.359 177.922C181.952 172.206 184.562 165.642 188.159 158.957C195.365 145.564 206.427 131.867 220.951 123.482L218.951 120.018C203.597 128.883 192.075 143.236 184.637 157.062C180.911 163.986 178.185 170.824 176.506 176.848C174.841 182.824 174.159 188.168 174.682 192.043L178.646 191.507ZM220.951 123.482C263.124 99.1334 298.235 108.361 312.703 114.611L314.289 110.939C299.014 104.339 262.514 94.8666 218.951 120.018L220.951 123.482ZM311.514 113.043C311.931 116.131 311.407 120.864 309.801 126.628C308.208 132.344 305.598 138.908 302.001 145.593C294.796 158.986 283.733 172.683 269.209 181.068L271.209 184.532C286.563 175.667 298.085 161.314 305.524 147.488C309.249 140.564 311.976 133.726 313.654 127.702C315.32 121.726 316.001 116.382 315.478 112.507L311.514 113.043ZM269.209 181.068C227.036 205.417 191.925 196.189 177.457 189.939L175.871 193.611C191.146 200.211 227.646 209.683 271.209 184.532L269.209 181.068Z" fill="black"/>
</svg>
