<svg width="24" height="24" viewBox="0 0 24 24" fill="none" xmlns="http://www.w3.org/2000/svg">
<path fill-rule="evenodd" clip-rule="evenodd" d="M7.19865 4.00026V5.59958H22.403V8.76549L20.6275 14.3959H6.6951L4.69453 0H-0.00341797V1.59932H3.30093L5.3015 15.9952H21.8012L24.0035 9.01149V4.00026H7.19865ZM8.04264 17.6027C7.194 17.6037 6.38039 17.941 5.78032 18.5406C5.18024 19.1403 4.84269 19.9533 4.84172 20.8014C4.84172 21.6497 5.17896 22.4633 5.77925 23.0631C6.37954 23.663 7.1937 24 8.04264 24C8.89158 24 9.70574 23.663 10.306 23.0631C10.9063 22.4633 11.2436 21.6497 11.2436 20.8014C11.2426 19.9533 10.9051 19.1403 10.305 18.5406C9.7049 17.941 8.89128 17.6037 8.04264 17.6027ZM8.04264 22.4007C7.7261 22.4007 7.41667 22.3069 7.15347 22.1311C6.89028 21.9554 6.68514 21.7056 6.56401 21.4134C6.44287 21.1211 6.41118 20.7996 6.47293 20.4893C6.53469 20.1791 6.68712 19.8941 6.91094 19.6705C7.13477 19.4468 7.41995 19.2945 7.73041 19.2328C8.04086 19.171 8.36266 19.2027 8.65511 19.3238C8.94755 19.4448 9.19751 19.6498 9.37337 19.9128C9.54923 20.1758 9.6431 20.485 9.6431 20.8014C9.6426 21.2254 9.47381 21.6319 9.17378 21.9317C8.87374 22.2315 8.46695 22.4002 8.04264 22.4007ZM16.9945 18.5406C17.5945 17.941 18.4082 17.6037 19.2568 17.6027C20.1054 17.6037 20.919 17.941 21.5191 18.5406C22.1192 19.1403 22.4568 19.9533 22.4577 20.8014C22.4577 21.6497 22.1205 22.4633 21.5202 23.0631C20.9199 23.663 20.1057 24 19.2568 24C18.4079 24 17.5937 23.663 16.9934 23.0631C16.3931 22.4633 16.0559 21.6497 16.0559 20.8014C16.0568 19.9533 16.3944 19.1403 16.9945 18.5406ZM18.3676 22.1311C18.6308 22.3069 18.9403 22.4007 19.2568 22.4007C19.6811 22.4002 20.0879 22.2315 20.3879 21.9317C20.688 21.6319 20.8567 21.2254 20.8573 20.8014C20.8573 20.485 20.7634 20.1758 20.5875 19.9128C20.4117 19.6498 20.1617 19.4448 19.8693 19.3238C19.5768 19.2027 19.255 19.171 18.9446 19.2328C18.6341 19.2945 18.3489 19.4468 18.1251 19.6705C17.9013 19.8941 17.7488 20.1791 17.6871 20.4893C17.6253 20.7996 17.657 21.1211 17.7782 21.4134C17.8993 21.7056 18.1044 21.9554 18.3676 22.1311Z" fill="white"/>
</svg>
