<svg width="803" height="258" viewBox="0 0 803 258" fill="none" xmlns="http://www.w3.org/2000/svg">
<rect width="803" height="258" fill="none"/>
<path fill-rule="evenodd" clip-rule="evenodd" d="M150.726 82.5088L151.215 82.7093C152.905 83.4027 154.909 84.9277 156.939 86.998C158.984 89.085 161.115 91.7864 163.047 94.9121C166.904 101.153 170.021 109.17 170.021 117.456C170.021 140.965 157.658 153.523 151.418 158.164L150.994 158.479L150.505 158.279C148.815 157.585 146.811 156.06 144.782 153.99C142.736 151.903 140.606 149.201 138.674 146.076C134.816 139.834 131.699 131.817 131.699 123.532C131.699 100.023 144.062 87.4643 150.302 82.824L150.726 82.5088ZM150.98 84.6557C144.938 89.3071 133.569 101.323 133.569 123.532C133.569 131.369 136.527 139.047 140.264 145.093C142.129 148.111 144.176 150.701 146.117 152.681C147.853 154.452 149.46 155.689 150.741 156.332C156.782 151.681 168.152 139.665 168.152 117.456C168.152 109.619 165.193 101.941 161.457 95.8949C159.591 92.8771 157.545 90.2868 155.604 88.3066C153.868 86.5356 152.261 85.2986 150.98 84.6557Z" fill="black"/>
<path fill-rule="evenodd" clip-rule="evenodd" d="M85.9238 120.078L86.3417 119.755C87.7875 118.638 90.11 117.665 92.9177 116.943C95.748 116.215 99.1527 115.72 102.826 115.61C110.16 115.39 118.661 116.699 125.837 120.842C146.196 132.596 150.89 149.582 151.789 157.307L151.85 157.831L151.432 158.154C149.986 159.271 147.664 160.244 144.856 160.967C142.026 161.695 138.621 162.189 134.948 162.299C127.614 162.52 119.113 161.21 111.937 157.067C91.5781 145.313 86.8832 128.327 85.9848 120.603L85.9238 120.078ZM87.9098 120.932C88.9172 128.49 93.6383 144.344 112.872 155.449C119.659 159.367 127.788 160.644 134.892 160.431C138.438 160.324 141.705 159.847 144.39 159.156C146.792 158.538 148.667 157.765 149.864 156.977C148.856 149.419 144.135 133.565 124.902 122.461C118.114 118.542 109.986 117.265 102.882 117.479C99.3355 117.585 96.069 118.062 93.3835 118.753C90.9818 119.371 89.1071 120.144 87.9098 120.932Z" fill="black"/>
<path fill-rule="evenodd" clip-rule="evenodd" d="M215.817 119.742L215.888 120.265C216.133 122.076 215.814 124.574 215.036 127.366C214.251 130.182 212.977 133.377 211.236 136.613C207.759 143.075 202.375 149.782 195.199 153.925C174.841 165.679 157.783 161.252 150.644 158.168L150.159 157.959L150.089 157.435C149.844 155.625 150.163 153.127 150.941 150.334C151.725 147.519 153 144.323 154.741 141.087C158.217 134.626 163.602 127.918 170.777 123.775C191.136 112.021 208.193 116.448 215.332 119.532L215.817 119.742ZM214.085 121.035C207.036 118.128 190.945 114.29 171.712 125.394C164.924 129.313 159.754 135.714 156.387 141.973C154.706 145.097 153.486 148.165 152.742 150.836C152.076 153.225 151.808 155.235 151.892 156.666C158.941 159.572 175.031 163.411 194.265 152.306C201.052 148.387 206.222 141.986 209.59 135.727C211.27 132.603 212.49 129.536 213.235 126.865C213.901 124.476 214.168 122.466 214.085 121.035Z" fill="black"/>
<path d="M360.377 86.7447L339.473 161.025H327.694L313.262 109.878C312.484 107.048 311.847 104.395 311.352 101.919C310.928 99.3724 310.539 96.6134 310.185 93.6422C310.114 93.0762 310.008 92.5103 309.867 91.9444C309.796 91.3077 309.725 90.7064 309.654 90.1404H312.201C312.13 90.7771 312.024 91.4138 311.883 92.0505C311.812 92.6164 311.741 93.2177 311.671 93.8544C311.317 96.8256 310.892 99.5492 310.397 102.025C309.973 104.501 309.371 107.119 308.593 109.878L294.268 161.025H282.489L262.115 86.7447H273.682L285.779 133.541C286.698 137.149 287.406 140.509 287.901 143.622C288.467 146.735 288.927 149.6 289.28 152.217C289.351 152.925 289.422 153.597 289.493 154.234C289.634 154.87 289.74 155.542 289.811 156.25H288.219C288.29 155.755 288.361 155.224 288.432 154.658C288.502 154.092 288.573 153.526 288.644 152.96C289.634 146.098 290.943 139.625 292.57 133.541L305.516 86.7447H317.401L330.135 133.541C331.196 137.361 331.974 140.686 332.469 143.516C332.964 146.346 333.424 149.388 333.849 152.642L334.379 156.25H332.787L333.318 152.854C334.096 146.487 335.334 140.05 337.032 133.541L349.447 86.7447H360.377ZM331.726 148.928H336.289V153.385H331.726V148.928ZM287.052 148.928H291.615V153.385H287.052V148.928ZM312.944 100.327H308.487V95.8706H312.944V100.327ZM389.148 162.298C383.489 162.298 378.501 161.025 374.186 158.478C369.871 155.861 366.546 152.253 364.211 147.655C361.877 142.985 360.71 137.644 360.71 131.631C360.71 125.689 361.877 120.454 364.211 115.926C366.546 111.328 369.871 107.755 374.186 105.209C378.501 102.662 383.489 101.389 389.148 101.389C394.808 101.389 399.795 102.662 404.11 105.209C408.426 107.755 411.751 111.328 414.085 115.926C416.42 120.454 417.587 125.689 417.587 131.631C417.587 137.644 416.42 142.985 414.085 147.655C411.751 152.253 408.426 155.861 404.11 158.478C399.795 161.025 394.808 162.298 389.148 162.298ZM389.148 154.234C392.685 154.234 395.798 153.278 398.486 151.368C401.175 149.458 403.262 146.806 404.747 143.41C406.233 140.014 406.976 136.088 406.976 131.631C406.976 124.981 405.348 119.64 402.094 115.608C398.84 111.505 394.525 109.453 389.148 109.453C383.772 109.453 379.457 111.505 376.202 115.608C372.948 119.64 371.321 124.981 371.321 131.631C371.321 136.088 372.064 140.014 373.549 143.41C375.035 146.806 377.122 149.458 379.81 151.368C382.498 153.278 385.611 154.234 389.148 154.234ZM478.875 161.025L467.308 161.131L445.449 129.827L452.134 123.248L478.875 161.025ZM438.127 135.876V161.025H427.94V83.5613H438.127V135.345L436.641 130.994L465.929 102.662H477.708L434.731 143.516L438.127 135.876ZM491.835 141.394C491.906 145.921 493.214 149.246 495.761 151.368C498.379 153.491 502.057 154.552 506.797 154.552C511.112 154.552 514.473 153.809 516.878 152.323C519.283 150.838 520.486 148.645 520.486 145.744C520.486 142.702 519.283 140.509 516.878 139.165C514.473 137.75 511.148 136.689 506.903 135.982L504.993 135.663C497.848 134.461 492.33 132.622 488.439 130.146C484.619 127.67 482.709 123.743 482.709 118.367C482.709 112.778 484.867 108.569 489.182 105.739C493.568 102.839 499.192 101.389 506.054 101.389C513.341 101.389 519 103.051 523.033 106.376C527.136 109.701 529.223 114.441 529.293 120.595H519C518.859 116.421 517.691 113.486 515.498 111.788C513.376 110.019 510.122 109.135 505.736 109.135C501.421 109.135 498.202 109.842 496.079 111.257C493.957 112.601 492.896 114.618 492.896 117.306C492.896 119.853 493.745 121.727 495.443 122.93C497.211 124.132 499.864 125.052 503.401 125.689L507.328 126.325C511.855 127.033 515.746 127.953 519 129.084C522.325 130.216 525.084 132.02 527.277 134.496C529.541 136.972 530.673 140.297 530.673 144.471C530.673 150.272 528.515 154.693 524.2 157.735C519.884 160.777 514.048 162.298 506.691 162.298C498.98 162.298 492.861 160.53 488.333 156.993C483.806 153.455 481.506 148.256 481.436 141.394H491.835ZM570.278 101.389C574.027 101.389 577.387 102.237 580.358 103.935C583.4 105.633 585.77 108.003 587.468 111.045C589.237 114.087 590.121 117.589 590.121 121.55V161.025H579.934V123.567C579.934 119.11 578.802 115.679 576.538 113.273C574.345 110.868 571.339 109.666 567.519 109.666C562.708 109.666 558.817 111.54 555.846 115.29C552.945 118.968 551.495 124.132 551.495 130.782V161.025H541.308V83.5613H551.495V107.013C551.495 108.498 551.495 109.984 551.495 111.469C551.495 112.884 551.495 114.334 551.495 115.82V116.032H554.679L551.495 120.277C551.495 116.528 552.309 113.238 553.936 110.408C555.634 107.508 557.897 105.279 560.727 103.723C563.628 102.167 566.811 101.389 570.278 101.389ZM628.735 162.298C623.076 162.298 618.088 161.025 613.773 158.478C609.458 155.861 606.133 152.253 603.798 147.655C601.464 142.985 600.296 137.644 600.296 131.631C600.296 125.689 601.464 120.454 603.798 115.926C606.133 111.328 609.458 107.755 613.773 105.209C618.088 102.662 623.076 101.389 628.735 101.389C634.394 101.389 639.382 102.662 643.697 105.209C648.012 107.755 651.337 111.328 653.672 115.926C656.006 120.454 657.174 125.689 657.174 131.631C657.174 137.644 656.006 142.985 653.672 147.655C651.337 152.253 648.012 155.861 643.697 158.478C639.382 161.025 634.394 162.298 628.735 162.298ZM628.735 154.234C632.272 154.234 635.385 153.278 638.073 151.368C640.761 149.458 642.848 146.806 644.334 143.41C645.819 140.014 646.562 136.088 646.562 131.631C646.562 124.981 644.935 119.64 641.681 115.608C638.427 111.505 634.111 109.453 628.735 109.453C623.359 109.453 619.043 111.505 615.789 115.608C612.535 119.64 610.908 124.981 610.908 131.631C610.908 136.088 611.651 140.014 613.136 143.41C614.622 146.806 616.709 149.458 619.397 151.368C622.085 153.278 625.198 154.234 628.735 154.234ZM677.713 143.304V144.153C677.713 145.992 677.713 147.831 677.713 149.671C677.713 151.51 677.713 153.349 677.713 155.189V179.064H667.526V102.662H677.713V120.595L673.151 116.032H680.685L677.289 121.975C677.289 117.801 678.209 114.158 680.048 111.045C681.958 107.932 684.469 105.562 687.582 103.935C690.766 102.237 694.197 101.389 697.875 101.389C702.756 101.389 707.072 102.662 710.821 105.209C714.641 107.685 717.577 111.222 719.629 115.82C721.751 120.418 722.812 125.653 722.812 131.525C722.812 137.397 721.68 142.667 719.416 147.336C717.223 152.005 714.181 155.648 710.291 158.266C706.4 160.883 702.049 162.192 697.239 162.192C693.772 162.192 690.483 161.379 687.37 159.752C684.328 158.054 681.852 155.578 679.942 152.323C678.032 149.069 677.077 145.178 677.077 140.651L679.199 147.867H673.151L677.713 143.304ZM695.01 154.128C698.264 154.128 701.2 153.172 703.818 151.262C706.435 149.352 708.487 146.699 709.972 143.304C711.458 139.837 712.201 135.911 712.201 131.525C712.201 127.139 711.458 123.284 709.972 119.959C708.557 116.634 706.541 114.052 703.924 112.212C701.377 110.373 698.477 109.453 695.222 109.453C691.756 109.453 688.679 110.444 685.99 112.424C683.373 114.405 681.321 117.094 679.836 120.489C678.35 123.885 677.607 127.634 677.607 131.737C677.607 135.84 678.315 139.625 679.73 143.091C681.215 146.487 683.267 149.175 685.884 151.156C688.573 153.137 691.614 154.128 695.01 154.128Z" fill="black"/>
</svg>
